<?xml version="1.0" encoding="utf-8"?>
<!-- Generator: Adobe Illustrator 16.0.0, SVG Export Plug-In . SVG Version: 6.00 Build 0)  -->
<!DOCTYPE svg PUBLIC "-//W3C//DTD SVG 1.1//EN" "http://www.w3.org/Graphics/SVG/1.1/DTD/svg11.dtd">
<svg version="1.1" xmlns="http://www.w3.org/2000/svg" xmlns:xlink="http://www.w3.org/1999/xlink" x="0px" y="0px" width="418px"
	 height="228px" viewBox="0 0 418 228" enable-background="new 0 0 418 228" xml:space="preserve">
<g id="Layer_4" display="none">
	<rect x="-209" y="-114" display="inline" fill-rule="evenodd" clip-rule="evenodd" width="881" height="609"/>
</g>
<g id="chapito">
	<g>
		<path fill-rule="evenodd" clip-rule="evenodd" fill="#FFFFFF" d="M131.554,7.861c1.414,6.072,4.133,11.963,6.313,17.927
			c7.079,19.373,14.283,38.728,21.551,58.073c0.493,1.313,0.226,2.219-1.131,3.186c-3.948,2.81-7.854,5.641-12.653,8.417
			c-2.965-6.058-5.796-11.808-8.59-17.564c-7.809-16.083-15.565-32.177-23.455-48.243c-0.815-1.66-0.513-2.893,0.971-4.363
			c5.68-5.624,11.218-11.309,15.495-17.434C130.554,7.861,131.054,7.861,131.554,7.861z"/>
		<path fill-rule="evenodd" clip-rule="evenodd" fill="#FFFFFF" d="M293.086,9.389c5.836,8.032,11.159,15.846,18.649,22.948
			c1.23,1.167,0.381,2.103-0.19,3.111c-10.27,18.136-20.552,36.271-30.846,54.401c-1.681,2.96-3.298,5.939-5.192,8.846
			c-1.581,2.425-1.746,2.385-4.487,0.532c-1.448-0.98-2.683-2.135-4.354-2.924c-6.332-2.988-6.754-6.434-4.733-11.199
			c10.47-24.679,20.255-49.474,30.287-74.227C292.371,10.502,292.641,10.146,293.086,9.389z"/>
		<path fill-rule="evenodd" clip-rule="evenodd" fill="#FFFFFF" d="M412.921,77.822c-6.073,4.187-11.295,7.879-16.675,11.479
			c-19.529,13.064-38.278,26.589-58.229,39.41c-2.173,1.396-3.682,1.592-6.197,0.494c-3.379-1.476-6.947-2.796-10.572-4.023
			c-2.645-0.896-2.362-1.683-0.753-3.042c12.097-10.219,24.075-20.494,36.091-30.751c6.972-5.952,13.931-11.911,20.934-17.848
			c0.898-0.762,1.527-1.907,3.76-1.303C391.136,74.907,401.154,77.248,412.921,77.822z"/>
		<path fill-rule="evenodd" clip-rule="evenodd" fill="#FFFFFF" d="M207.287,33.536c3.835,5.115,7.515,9.735,12.27,13.968
			c0.723,0.643,0.466,1.366,0.437,2.058c-0.964,23.671-1.965,47.341-2.877,71.013c-0.054,1.398-0.758,1.786-2.842,1.587
			c-2.969-0.283-5.989-0.409-8.96-0.122c-2.58,0.25-3.6-0.271-3.673-1.935c-0.192-4.402-0.595-8.801-0.864-13.203
			c-1.133-18.551-2.246-37.103-3.369-55.654c-0.057-0.944-0.07-1.863,0.513-2.78C200.973,43.666,203.963,38.848,207.287,33.536z"/>
		<path fill-rule="evenodd" clip-rule="evenodd" fill="#FFFFFF" d="M89.805,44.391c1.403,0.314,1.429,1.138,1.816,1.736
			c7.598,11.718,15.135,23.452,22.687,35.182c4.785,7.431,9.446,14.896,14.455,22.267c1.245,1.832,0.871,2.862-1.671,3.846
			c-1.266,0.49-2.351,1.168-3.508,1.768c-5.345,2.77-5.362,2.776-8.488-0.974c-14.16-16.99-28.275-33.995-42.515-50.958
			c-1.447-1.723-1.472-2.701,1.225-4.009c4.938-2.396,9.437-5.151,14.115-7.761C88.571,45.126,89.196,44.747,89.805,44.391z"/>
		<path fill-rule="evenodd" clip-rule="evenodd" fill="#FFFFFF" d="M332.938,50.326c5.838,3.305,11.235,6.459,16.823,9.472
			c2.245,1.21,0.696,2.106-0.158,3.045c-8.756,9.612-17.539,19.213-26.363,28.801c-6.884,7.479-13.863,14.923-20.732,22.408
			c-1.516,1.65-2.736,1.875-5.285,0.537c-8.374-4.397-8.51-4.334-4.046-10.407c12.628-17.177,25.289-34.344,37.941-51.513
			C331.641,51.959,332.209,51.261,332.938,50.326z"/>
		<path fill-rule="evenodd" clip-rule="evenodd" fill="#FFFFFF" d="M103.194,118.197c-0.241,0.225-0.376,0.491-0.661,0.596
			c-3.122,1.147-6.197,2.36-9.436,3.363c-1.746,0.541-2.267-0.727-3.003-1.339c-13.182-10.968-26.318-21.958-39.453-32.948
			c-7.501-6.276-14.95-12.577-22.505-18.827c-1.34-1.109-1.273-1.502,1.011-1.761c5.655-0.64,11.146-1.707,16.435-3.102
			c2.424-0.639,3.635-0.391,5.055,1.04C62.005,76.681,73.55,88.074,84.974,99.515c5.645,5.654,11.152,11.362,16.716,17.048
			C102.211,117.096,102.689,117.646,103.194,118.197z"/>
		<path fill-rule="evenodd" clip-rule="evenodd" fill="#FFFFFF" d="M239.303,75.475c3.766,3.264,7.468,6.48,11.189,9.689
			c0.957,0.825,1.784,1.766,3,2.405c5.016,2.637,5.064,5.654,3.298,9.419c-3.951,8.426-7.25,16.977-10.621,25.507
			c-0.698,1.766-1.625,2.236-4.511,1.744c-3.589-0.613-7.356-0.812-11.045-1.193c-1.456-0.15-2.574-0.403-2.282-1.63
			c3.604-15.142,5.794-30.413,10.466-45.458C238.836,75.831,239.034,75.726,239.303,75.475z"/>
		<path fill-rule="evenodd" clip-rule="evenodd" fill="#FFFFFF" d="M408.873,144.829c-0.586,0.92-1.89,1.113-2.896,1.493
			c-20.241,7.637-40.526,15.228-60.724,22.91c-2.426,0.922-3.795,0.982-5.267-0.688c-1.87-2.124-5.866-4.189-5.68-6.157
			c0.194-2.051,5.36-3.133,8.395-4.591c10.727-5.153,21.561-10.216,32.337-15.327c1.109-0.526,2.101-1.07,3.675-0.897
			C388.729,142.67,398.754,143.739,408.873,144.829z"/>
		<path fill-rule="evenodd" clip-rule="evenodd" fill="#FFFFFF" d="M177.922,72.116c3.582,16.178,7.064,32.065,10.664,47.941
			c0.385,1.7-0.329,2.487-3.041,2.633c-3.589,0.193-7.74,1.82-10.486,0.777c0,0-2.229-4.118-3.057-6.305
			c-3.674-9.708-7.224-19.435-10.857-29.149c-0.388-1.038-0.604-1.948,0.669-2.855c5.471-3.897,10.267-8.12,14.875-12.43
			C176.875,72.555,177.229,72.454,177.922,72.116z"/>
		<path fill-rule="evenodd" clip-rule="evenodd" fill="#FFFFFF" d="M5.523,147.795c1.298-0.303,2.11,0.333,3.025,0.67
			c18.866,6.944,37.691,13.933,56.598,20.832c2.505,0.914,3.343,1.541,1.505,3.298c-2.32,2.221-3.989,4.713-5.899,7.101
			c-0.968,1.21-1.947,1.636-4.296,0.956c-10.77-3.118-21.655-6.076-32.507-9.081c-1.376-0.381-2.61-0.672-2.915-1.854
			c-2.104-8.16-7.328-15.463-15.495-21.931L5.523,147.795z"/>
		<path fill-rule="evenodd" clip-rule="evenodd" fill="#FFFFFF" d="M358.893,191.814c-1.242,0.263-1.754-0.297-2.135-0.902
			c-2.023-3.212-3.955-6.448-6.052-9.641c-0.94-1.432,0.563-1.783,2.055-2.226c13.42-3.984,26.842-7.965,40.259-11.954
			c2.029-0.603,3.997-1.294,6.065-1.838c1.683-0.441,3.022-0.423,2.301,1.174c-2.525,5.588-5.249,11.149-6.007,16.988
			c-0.136,1.048-1.239,1.741-2.763,2.034c-10.964,2.108-21.941,4.183-32.917,6.267C359.462,191.761,359.21,191.776,358.893,191.814z
			"/>
		<path fill-rule="evenodd" clip-rule="evenodd" fill="#FFFFFF" d="M29.871,140.219c8.779-1.443,16.802-2.833,24.602-4.671
			c1.378-0.325,2.367,0.051,3.364,0.604c9.827,5.458,19.661,10.911,29.527,16.34c1.125,0.619,1.509,1.057,0.385,1.899
			c-3.37,2.527-6.616,5.121-9.866,7.71c-0.854,0.681-1.577,0.791-2.747,0.237C60.095,155.211,44.854,148.246,29.871,140.219z"/>
		<path fill-rule="evenodd" clip-rule="evenodd" fill="#FFFFFF" d="M356.147,137.071c-10.021,5.805-19.801,11.497-29.646,17.144
			c-1.461,0.838-2.909,0.84-4.409-0.307c-2.374-1.815-4.979-3.525-7.685-5.149c-1.801-1.081-1.618-1.888-0.034-2.941
			c6.861-4.562,13.657-9.164,20.477-13.75c0.774-0.521,1.428-1.012,2.841-0.574C343.686,133.353,349.735,135.142,356.147,137.071z"
			/>
		<path fill-rule="evenodd" clip-rule="evenodd" fill="#FFFFFF" d="M379.48,220.931c-3.99,0-7.987-0.083-11.969,0.033
			c-2.098,0.062-2.852-0.438-3.098-1.658c-0.749-3.738-1.571-7.471-2.426-11.199c-0.242-1.053,0.517-1.33,2.013-1.487
			c8.227-0.862,16.448-1.748,24.646-2.712c3.184-0.375,4.465,0.246,4.55,2.335c0.17,4.163,0.597,8.321,1.027,12.478
			c0.125,1.203-0.4,1.668-2.414,1.685c-4.111,0.033-8.22,0.228-12.329,0.356C379.48,220.816,379.48,220.873,379.48,220.931z"/>
		<path fill-rule="evenodd" clip-rule="evenodd" fill="#FFFFFF" d="M158.773,125.355c0.229,0.734-0.541,0.941-1.436,1.107
			c-1.074,0.2-2.128,0.444-3.204,0.641c-2.711,0.493-7.873,1.446-7.873,1.446s-2.542-3.077-3.619-4.737
			c-3.441-5.305-6.773-10.638-10.286-15.923c-0.891-1.339-0.782-2.231,1.023-3.264c3.506-2.008,6.749-4.197,10.105-6.309
			c0.97-0.61,1.813-1.175,2.539,0.201c4.607,8.715,8.574,17.551,12.605,26.375C158.697,125.043,158.726,125.202,158.773,125.355z"/>
		<path fill-rule="evenodd" clip-rule="evenodd" fill="#FFFFFF" d="M275.186,102.838c0.458,0.221,0.977,0.437,1.435,0.696
			c3.244,1.835,6.444,3.703,9.729,5.509c1.137,0.625,1.234,1.18,0.621,2.036c-4.408,6.143-8.778,12.297-13.051,18.478
			c-0.817,1.183-1.709,1.308-3.386,0.732c-1.633-0.56-3.384-0.988-5.109-1.434c-5.245-1.351-5.236-1.34-3.405-4.875
			c3.437-6.633,7.244-13.18,11.491-19.624C273.868,103.812,273.924,103.087,275.186,102.838z"/>
		<path fill-rule="evenodd" clip-rule="evenodd" fill="#FFFFFF" d="M71.063,49.018c-7.47-0.019-13.801-3.998-13.832-8.692
			c-0.032-4.877,6.197-8.702,14.146-8.686c7.694,0.016,13.621,3.873,13.496,8.782C84.748,45.36,78.84,49.038,71.063,49.018z"/>
		<path fill-rule="evenodd" clip-rule="evenodd" fill="#FFFFFF" d="M365.046,43.164c0.01,4.729-6.109,8.626-13.468,8.578
			c-7.973-0.052-14.247-3.929-14.171-8.757c0.073-4.614,6.339-8.547,13.685-8.589C359.123,34.351,365.035,38.065,365.046,43.164z"/>
		<path fill-rule="evenodd" clip-rule="evenodd" fill="#FFFFFF" d="M298.183,140.35c-1.358-0.495-2.565-0.895-3.705-1.36
			c-3.198-1.305-8.507-1.903-9.081-4.011c-0.5-1.84,2.908-4.149,4.764-6.188c3.1-3.407,6.352-6.758,9.506-10.145
			c0.771-0.828,1.42-1.432,3.099-0.616c3.946,1.919,7.979,3.77,11.994,5.633c1.315,0.61,1.672,1.169,0.553,2.123
			c-5.265,4.486-10.415,9.026-15.623,13.54C299.271,139.686,298.723,139.986,298.183,140.35z"/>
		<path fill-rule="evenodd" clip-rule="evenodd" fill="#FFFFFF" d="M28.583,222.185c-4.859,0-9.72-0.03-14.579,0.014
			c-2.157,0.02-3.167-0.141-1.609-1.633c2.814-2.692,4.851-5.656,6.935-8.589c0.82-1.152,1.795-1.677,3.927-1.557
			c7.069,0.396,14.153,0.695,21.236,0.978c1.588,0.063,2.207,0.434,2.125,1.439c-0.219,2.664-0.432,5.331-0.476,7.999
			c-0.021,1.245-1.041,1.37-2.607,1.36C38.552,222.163,33.567,222.185,28.583,222.185z"/>
		<path fill-rule="evenodd" clip-rule="evenodd" fill="#FFFFFF" d="M46.396,203.729c-5.879-0.65-11.751-1.328-17.641-1.935
			c-1.624-0.167-2.501-0.503-2.182-1.653c1.104-3.971,1.028-7.975,0.609-11.975c-0.128-1.225,0.739-1.343,2.203-1.078
			c7.406,1.341,14.798,2.714,22.217,4.026c1.414,0.25,1.671,0.619,1.325,1.496c-1.292,3.269-2.514,6.551-3.62,9.846
			C48.928,203.587,48.052,203.884,46.396,203.729z"/>
		<path fill-rule="evenodd" clip-rule="evenodd" fill="#FFFFFF" d="M112.059,139.931c-0.098,0.695-0.883,0.864-1.442,1.155
			c-8.018,4.151-8.003,4.143-14.815-0.77c-5.089-3.671-10.156-7.355-15.374-10.952c-1.787-1.231-1.631-1.886,0.771-2.519
			c1.719-0.453,3.326-1.072,4.994-1.604c6.052-1.927,6.053-1.924,10.275,1.597c4.735,3.95,9.474,7.899,14.204,11.852
			C111.188,139.121,111.66,139.573,112.059,139.931z"/>
		<path fill-rule="evenodd" clip-rule="evenodd" fill="#FFFFFF" d="M133.58,131.925c-0.007,0.342-0.243,0.571-0.731,0.743
			c-2.943,1.028-5.88,2.064-8.807,3.111c-1.311,0.468-1.792-0.167-2.319-0.685c-5.262-5.154-10.497-10.318-15.774-15.465
			c-0.653-0.636-0.769-1.083,0.344-1.559c3.405-1.455,6.782-2.936,10.141-4.433c1.032-0.459,1.707-0.449,2.359,0.31
			c4.924,5.73,10.107,11.374,14.331,17.333C133.275,131.495,133.429,131.71,133.58,131.925z"/>
		<path fill-rule="evenodd" clip-rule="evenodd" fill="#FFFFFF" d="M206.548,31.549c-5.064,0.041-9.097-2.541-9.168-5.868
			c-0.074-3.494,3.734-5.951,9.303-6.001c4.587-0.042,9.5,2.908,9.609,5.769C216.419,28.81,212.115,31.505,206.548,31.549z"/>
		<path fill-rule="evenodd" clip-rule="evenodd" fill="#FFFFFF" d="M5.539,147.788c-0.166-0.071-0.333-0.143-0.5-0.214
			c0.146-0.038,0.293-0.076,0.439-0.114c0.015,0.111,0.03,0.224,0.044,0.335L5.539,147.788z"/>
	</g>
</g>
<g id="trait" display="none">

		<rect x="11.641" y="228" display="inline" fill-rule="evenodd" clip-rule="evenodd" fill="#FFFFFF" stroke="#FFFFFF" stroke-miterlimit="10" width="382.601" height="2"/>

		<rect x="11.641" y="335" display="inline" fill-rule="evenodd" clip-rule="evenodd" fill="#FFFFFF" stroke="#FFFFFF" stroke-miterlimit="10" width="382.601" height="2"/>

		<rect x="12.641" y="281" display="inline" fill-rule="evenodd" clip-rule="evenodd" fill="#FFFFFF" stroke="#FFFFFF" stroke-miterlimit="10" width="152.359" height="2"/>

		<rect x="241.641" y="280" display="inline" fill-rule="evenodd" clip-rule="evenodd" fill="#FFFFFF" stroke="#FFFFFF" stroke-miterlimit="10" width="152.359" height="2"/>
</g>
<g id="Layer_6" display="none">

		<text transform="matrix(1 0 0 1 104 264)" display="inline" fill="#FFFFFF" stroke="#FFFFFF" stroke-miterlimit="10" font-family="'Italiana-Regular'" font-size="28">PROCHAINEMENT</text>

		<text transform="matrix(1 0 0 1 192 291)" display="inline" fill="#FFFFFF" stroke="#FFFFFF" stroke-miterlimit="10" font-family="'Italiana-Regular'" font-size="28">à</text>

		<text transform="matrix(1.1 0 0 1 126 322)" display="inline" fill="#FFFFFF" stroke="#FFFFFF" stroke-miterlimit="10" font-family="'Italiana-Regular'" font-size="28" letter-spacing="0.909">MULHOUSE</text>
</g>
<g id="lucio_amaretti">

		<text transform="matrix(1 0 0 1 96.6406 184.3164)" fill="#FFFFFF" stroke="#FFFFFF" stroke-miterlimit="10" font-family="'Italiana-Regular'" font-size="36">Lucio Amaretti</text>
</g>
<g id="la_traditon">
	<text transform="matrix(1 0 0 1 71 220)" fill="#FFFFFF" font-family="'Barlow-Regular'" font-size="28">La Tradition de la pizza</text>
	<rect x="-97" y="-67" fill="none" width="576" height="385"/>
</g>
</svg>
